<svg width="25" height="25" viewBox="0 0 25 25" fill="none" xmlns="http://www.w3.org/2000/svg">
<g clip-path="url(#clip0)">
<path d="M21.9481 2.9873H3.05711C1.37078 2.9873 0 4.35809 0 6.04441V18.9556C0 20.642 1.37078 22.0128 3.05711 22.0128H21.9429C23.6292 22.0128 25 20.642 25 18.9556V6.04958C25.0052 4.36326 23.6344 2.9873 21.9481 2.9873ZM23.6085 18.9556C23.6085 19.8712 22.8636 20.6161 21.9481 20.6161H3.05711C2.14153 20.6161 1.39665 19.8712 1.39665 18.9556V6.04958C1.39665 5.134 2.14153 4.38913 3.05711 4.38913H21.9429C22.8585 4.38913 23.6034 5.134 23.6034 6.04958V18.9556H23.6085Z" fill="#5D8C71"/>
<path d="M15.7666 12.3397L21.8808 6.85654C22.1653 6.5979 22.1912 6.15821 21.9325 5.86854C21.6739 5.58404 21.2342 5.55817 20.9445 5.81681L12.5129 13.3846L10.868 11.9155C10.8628 11.9103 10.8576 11.9052 10.8576 11.9C10.8214 11.8638 10.7852 11.8327 10.7438 11.8017L4.05028 5.81164C3.7606 5.553 3.32092 5.57886 3.06228 5.86854C2.80364 6.15821 2.8295 6.5979 3.11918 6.85654L9.30581 12.3862L3.14504 18.1539C2.86571 18.4177 2.8502 18.8574 3.11401 19.1419C3.25367 19.2867 3.43989 19.3643 3.62611 19.3643C3.79681 19.3643 3.96751 19.3022 4.10201 19.1781L10.3559 13.3277L12.0526 14.8433C12.187 14.9623 12.3526 15.0192 12.5181 15.0192C12.6836 15.0192 12.8543 14.9571 12.9837 14.8381L14.7269 13.2759L20.9445 19.1832C21.079 19.3126 21.2549 19.3746 21.4256 19.3746C21.6118 19.3746 21.7929 19.3022 21.9325 19.1574C22.1964 18.8781 22.186 18.4332 21.9067 18.1694L15.7666 12.3397Z" fill="#5D8C71"/>
</g>
<defs>
<clipPath id="clip0">
<rect width="25" height="25" fill="white"/>
</clipPath>
</defs>
</svg>
