<svg width="40" height="40" viewBox="0 0 40 40" fill="none" xmlns="http://www.w3.org/2000/svg">
<g clip-path="url(#clip0)">
<path d="M35.1169 4.77979H4.89137C2.19325 4.77979 0 6.97304 0 9.67116V30.3291C0 33.0273 2.19325 35.2205 4.89137 35.2205H35.1086C37.8067 35.2205 40 33.0273 40 30.3291V9.67943C40.0083 6.98132 37.815 4.77979 35.1169 4.77979ZM37.7736 30.3291C37.7736 31.7941 36.5818 32.9859 35.1169 32.9859H4.89137C3.42644 32.9859 2.23464 31.7941 2.23464 30.3291V9.67943C2.23464 8.2145 3.42644 7.0227 4.89137 7.0227H35.1086C36.5736 7.0227 37.7654 8.2145 37.7654 9.67943V30.3291H37.7736Z" fill="#93F600"/>
<path d="M25.2266 19.7434L35.0093 10.9704C35.4645 10.5565 35.5059 9.85304 35.0921 9.38956C34.6783 8.93436 33.9748 8.89298 33.5113 9.3068L20.0207 21.4152L17.3888 19.0647C17.3805 19.0564 17.3722 19.0482 17.3722 19.0399C17.3143 18.982 17.2564 18.9323 17.1902 18.8826L6.48046 9.29852C6.01698 8.8847 5.31348 8.92608 4.89966 9.38956C4.48584 9.85304 4.52722 10.5565 4.9907 10.9704L14.8893 19.8179L5.03208 29.0461C4.58515 29.4682 4.56033 30.1717 4.98242 30.6269C5.20589 30.8586 5.50384 30.9828 5.80179 30.9828C6.07491 30.9828 6.34803 30.8835 6.56322 30.6848L16.5694 21.3242L19.2841 23.7492C19.4993 23.9395 19.7641 24.0306 20.029 24.0306C20.2938 24.0306 20.5669 23.9313 20.7739 23.7409L23.563 21.2414L33.5113 30.6931C33.7265 30.9 34.0079 30.9993 34.281 30.9993C34.5789 30.9993 34.8686 30.8835 35.0921 30.6517C35.5142 30.2048 35.4976 29.493 35.0507 29.0709L25.2266 19.7434Z" fill="#93F600"/>
</g>
<defs>
<clipPath id="clip0">
<rect width="40" height="40" fill="white"/>
</clipPath>
</defs>
</svg>
