<svg width="152" height="295" viewBox="0 0 152 295" fill="none" xmlns="http://www.w3.org/2000/svg">
<path d="M51.75 30H59.25V60H51.75V30ZM78 30H66.75C64.6875 30 63 31.6875 63 33.75V56.25C63 58.3125 64.6875 60 66.75 60H78C80.0625 60 81.75 58.3125 81.75 56.25V33.75C81.75 31.6875 80.0625 30 78 30ZM74.25 52.5H70.5V37.5H74.25V52.5ZM100.5 30H89.25C87.1875 30 85.5 31.6875 85.5 33.75V56.25C85.5 58.3125 87.1875 60 89.25 60H100.5C102.562 60 104.25 58.3125 104.25 56.25V33.75C104.25 31.6875 102.562 30 100.5 30ZM96.75 52.5H93V37.5H96.75V52.5Z" fill="#93F600"/>
<path d="M40.5 15V75H115.5V15H40.5ZM48 67.5V22.5H108V67.5H48Z" fill="#93F600"/>
<rect y="45" width="152" height="250" fill="#93F600" fill-opacity="0.19"/>
</svg>
