<svg width="186" height="88" viewBox="0 0 186 88" fill="none" xmlns="http://www.w3.org/2000/svg">
<path d="M49.2263 87.3895H51.1727V80.4389H49.2263V87.3895ZM64.839 87.3895V82.8655L66.744 87.3484H68.8147V80.4389H67.6551V84.6751L65.7915 80.4389H63.6381V87.3895H64.839ZM85.7941 80.4389L84.4274 85.5388C84.4274 85.5388 84.4274 85.4154 84.386 85.2509C84.3446 85.0452 84.2618 84.7985 84.179 84.5106C84.1375 84.2227 84.0547 83.8937 83.9719 83.5235C83.8477 83.1534 83.7648 82.7832 83.682 82.4542C83.5992 82.084 83.5163 81.755 83.4335 81.4671C83.3921 81.1381 83.3093 80.8913 83.2679 80.7268C83.2265 80.5623 83.185 80.4389 83.185 80.4389H81.1144L83.0608 87.3484H85.1315L87.2435 80.4389H85.7941ZM99.3776 87.3895L104.057 87.3484V86.4024H101.324V84.3049H103.436V83.359H101.324V81.3849H103.974V80.4389H99.3776V87.3895ZM116.191 87.0193L116.523 87.1427C116.937 87.2661 117.351 87.3484 117.682 87.3895C118.013 87.4717 118.303 87.4717 118.552 87.4717C118.883 87.4717 119.173 87.4306 119.463 87.3072C119.753 87.225 120.001 87.0605 120.208 86.8548C120.415 86.6492 120.581 86.4436 120.705 86.1557C120.83 85.8678 120.871 85.5799 120.871 85.292C120.871 85.0863 120.83 84.8807 120.788 84.7162C120.747 84.5517 120.705 84.3872 120.581 84.2638C120.498 84.0993 120.374 83.9759 120.25 83.8525C120.084 83.688 119.918 83.5646 119.711 83.4412L118.759 82.7832C118.635 82.701 118.51 82.6187 118.428 82.5364C118.345 82.4953 118.303 82.4131 118.262 82.3719C118.221 82.3308 118.179 82.2485 118.179 82.2074C118.138 82.1663 118.138 82.084 118.138 82.0018C118.138 81.7961 118.221 81.6316 118.345 81.5083C118.51 81.426 118.717 81.3437 118.925 81.3437C119.049 81.3437 119.214 81.3849 119.38 81.426C119.546 81.4671 119.711 81.5083 119.877 81.5494C120.043 81.5905 120.167 81.6316 120.291 81.7139C120.374 81.755 120.457 81.755 120.457 81.755L120.664 81.8373V80.7268L120.54 80.6857C120.126 80.6034 119.711 80.4801 119.339 80.4389C118.966 80.3567 118.635 80.3156 118.386 80.3156C118.096 80.3156 117.806 80.3567 117.558 80.4801C117.268 80.5623 117.061 80.7268 116.854 80.8913C116.647 81.097 116.523 81.3026 116.398 81.5905C116.274 81.8373 116.233 82.1252 116.233 82.4131C116.233 82.6187 116.274 82.8243 116.316 82.9888C116.357 83.1534 116.44 83.3179 116.523 83.4824C116.605 83.6058 116.73 83.7703 116.895 83.8937C117.061 84.0582 117.227 84.1815 117.475 84.3461L118.303 84.9218C118.469 85.0452 118.593 85.1275 118.676 85.2097C118.759 85.2509 118.842 85.3331 118.883 85.3742C118.925 85.4565 118.966 85.4976 118.966 85.5388C118.966 85.5799 118.966 85.6621 118.966 85.7444C118.966 85.8266 118.966 85.9089 118.925 85.9912C118.842 86.0734 118.8 86.1557 118.717 86.2379C118.635 86.279 118.552 86.3202 118.428 86.3613C118.345 86.4024 118.262 86.4024 118.138 86.4024C117.972 86.4024 117.806 86.3613 117.599 86.3202C117.392 86.279 117.227 86.2379 117.02 86.1557C116.854 86.1145 116.73 86.0323 116.605 85.9912C116.481 85.95 116.44 85.9089 116.44 85.9089L116.191 85.7855V87.0193ZM134.786 87.3895H136.732V81.3849H137.519L137.892 82.3308H138.596V80.4389H132.922V82.3308H133.585L133.999 81.3849H134.786V87.3895Z" fill="#E30000"/>
<path d="M0.897339 69.9103L1.84984 70.1982C3.17506 70.5684 4.33462 70.8563 5.28713 71.0208C6.23963 71.1853 7.1093 71.2264 7.81332 71.2264C8.80724 71.2264 9.67691 71.0619 10.5466 70.774C11.3748 70.445 12.0789 69.9926 12.7001 69.4168C13.3213 68.7999 13.8182 68.1419 14.1495 67.3193C14.5222 66.5379 14.6879 65.6742 14.6879 64.7694C14.6879 64.1525 14.6465 63.6178 14.5222 63.1243C14.398 62.6308 14.1909 62.1784 13.901 61.726C13.6112 61.3147 13.2798 60.9034 12.8657 60.4921C12.4102 60.122 11.9132 59.7107 11.3334 59.2995L8.47593 57.4076C8.0618 57.1197 7.7305 56.9141 7.52343 56.7084C7.27495 56.5028 7.06789 56.3383 6.94365 56.1738C6.81941 56.0504 6.73658 55.8859 6.69517 55.7214C6.65376 55.5569 6.65376 55.3512 6.65376 55.1456C6.65376 54.5287 6.86082 54.0763 7.31637 53.7061C7.77191 53.3771 8.31028 53.1715 8.93148 53.1715C9.34561 53.1715 9.80115 53.2537 10.2981 53.3771C10.8365 53.5005 11.3334 53.6239 11.789 53.7884C12.2445 53.9529 12.6172 54.0763 12.9485 54.1996C13.2799 54.323 13.4455 54.4053 13.4455 54.4053L14.0667 54.6932V51.3619L13.694 51.2796C12.4516 50.9506 11.2506 50.6627 10.1739 50.457C9.05572 50.2514 8.14463 50.128 7.39919 50.128C6.4881 50.128 5.65984 50.2925 4.87299 50.5804C4.08615 50.9094 3.42354 51.3619 2.88517 51.8965C2.30538 52.4723 1.84984 53.1303 1.55995 53.8706C1.22864 54.652 1.06299 55.4746 1.06299 56.3794C1.06299 56.9552 1.14582 57.4898 1.27006 57.9834C1.3943 58.4769 1.60136 58.9704 1.89125 59.4228C2.18114 59.8752 2.55386 60.2865 3.00941 60.6978C3.46495 61.1502 4.00332 61.5615 4.66593 62.0139L7.1093 63.7001C7.60626 64.0291 7.97898 64.317 8.22745 64.5226C8.51735 64.7283 8.72441 64.9339 8.84865 65.0573C8.97289 65.2218 9.0143 65.3863 9.05572 65.5508C9.09713 65.7153 9.09713 65.8798 9.09713 66.1266C9.13854 66.4145 9.05572 66.6613 8.93148 66.908C8.76582 67.1548 8.60017 67.3604 8.35169 67.5249C8.14463 67.6895 7.85474 67.8128 7.56484 67.9362C7.27495 68.0185 6.94365 68.0596 6.65376 68.0596C6.1568 68.0596 5.61843 67.9773 5.03865 67.854C4.45886 67.6895 3.92049 67.5661 3.42354 67.3604C2.88517 67.1959 2.47104 67.0314 2.13973 66.8669C1.76701 66.7024 1.60136 66.6201 1.60136 66.6201L0.897339 66.25V69.9103ZM26.3664 67.5661C24.9583 67.5249 23.8816 67.1548 23.0947 66.4556C22.3079 65.7565 21.8109 64.646 21.6039 63.1654L30.0936 62.2606V61.2736C30.0936 60.4921 30.0521 59.8341 29.9693 59.3406C29.9279 58.8059 29.8037 58.3535 29.6794 57.9422C29.5552 57.5721 29.3481 57.202 29.1411 56.9141C28.8926 56.585 28.6441 56.2971 28.3128 55.9681C27.7744 55.3512 27.1118 54.8988 26.2836 54.6109C25.4967 54.323 24.6684 54.1585 23.7574 54.1585C22.5564 54.1585 21.4796 54.3642 20.5271 54.8166C19.5746 55.269 18.7464 55.8859 18.0838 56.6673C17.3797 57.4898 16.8828 58.4358 16.5101 59.5873C16.1374 60.6978 15.9717 61.9316 15.9717 63.2477C15.9717 64.4404 16.1374 65.5097 16.4687 66.4968C16.8 67.4838 17.2969 68.3064 17.9181 69.0055C18.5393 69.7047 19.2847 70.2805 20.1544 70.6506C20.9827 71.0208 21.9766 71.2264 23.0533 71.2264C23.6331 71.2264 24.2543 71.1853 24.8341 71.103C25.4553 71.0208 26.2007 70.8563 27.1532 70.6506L28.8512 70.1982L29.8865 69.9926L29.431 67.1959L28.9754 67.2782C28.3542 67.4016 27.8573 67.4838 27.4845 67.5249C27.1118 67.5661 26.7391 67.5661 26.3664 67.5661ZM24.6684 60.2043L21.5625 60.6155V60.5333C21.5625 59.0938 21.6867 58.1068 22.018 57.5721C22.3079 57.0374 22.722 56.7907 23.2604 56.8318C23.5089 56.8318 23.7159 56.8729 23.8816 56.9552C24.0472 56.9963 24.2129 57.1608 24.2957 57.3665C24.42 57.6132 24.5028 57.9011 24.5856 58.2713C24.627 58.6825 24.6684 59.1761 24.6684 59.7519V60.2043ZM44.671 54.8577L44.2982 54.7754C43.3043 54.5698 42.4347 54.4053 41.6478 54.323C40.861 54.1996 40.1984 54.1585 39.5772 54.1585C38.3762 54.1585 37.2994 54.4053 36.3055 54.8577C35.3116 55.3101 34.4833 55.927 33.7793 56.7495C33.0339 57.5721 32.4955 58.518 32.1228 59.6696C31.7087 60.78 31.5016 62.0139 31.5016 63.3299C31.5016 64.4815 31.6673 65.5508 31.9986 66.4968C32.3299 67.4838 32.7854 68.3064 33.4066 69.0055C34.0278 69.7047 34.7318 70.2805 35.6015 70.6506C36.4298 71.0208 37.3823 71.2264 38.4176 71.2264C39.163 71.2264 39.9913 71.1442 40.9438 70.9385C41.8549 70.774 43.0559 70.445 44.4639 70.0337L44.878 69.9103L44.4225 67.1959C44.4225 67.1959 44.2982 67.2371 44.0912 67.2782C43.8427 67.3193 43.5942 67.3604 43.2629 67.4016C42.973 67.4427 42.6417 67.4838 42.3518 67.5249C42.0619 67.5661 41.8135 67.5661 41.6478 67.5661C40.3226 67.5661 39.2873 67.1137 38.5418 66.2089C37.8378 65.3041 37.4237 63.9469 37.4237 62.1784C37.4237 61.3147 37.4651 60.5333 37.5065 59.8752C37.5479 59.2172 37.6307 58.6414 37.7964 58.2301C37.962 57.7777 38.2105 57.4076 38.5004 57.202C38.8317 56.9963 39.2459 56.8729 39.7428 56.8729C40.1155 56.8729 40.6125 56.9141 41.1509 57.0374C41.7306 57.1608 42.3104 57.2431 42.8074 57.3665C43.3457 57.4898 43.8013 57.6132 44.2154 57.6955C44.5881 57.8189 44.7538 57.86 44.7538 57.86L44.671 54.8577ZM61.2776 62.3018C61.2776 61.0268 61.112 59.8752 60.7392 58.8882C60.4079 57.86 59.8696 56.9552 59.207 56.256C58.5443 55.5157 57.7575 54.9811 56.805 54.5698C55.8525 54.1996 54.7758 54.0351 53.5748 54.0351C52.3324 54.0351 51.2556 54.2408 50.3031 54.652C49.3506 55.1045 48.5224 55.6802 47.8184 56.4617C47.1558 57.2431 46.6174 58.189 46.2447 59.2995C45.8719 60.4099 45.7063 61.6026 45.7063 62.9598C45.7063 64.1936 45.8719 65.3452 46.2447 66.3734C46.576 67.4016 47.1143 68.2652 47.7769 68.9644C48.4396 69.6636 49.2264 70.2394 50.1789 70.6095C51.1314 71.0208 52.2081 71.2264 53.3677 71.2264C54.6101 71.2264 55.6868 70.9797 56.6393 70.5684C57.6333 70.116 58.4615 69.4991 59.1241 68.7588C59.8282 67.9773 60.3251 67.0314 60.6978 65.921C61.112 64.8517 61.2776 63.6178 61.2776 62.3018ZM51.4627 62.384C51.4627 61.2736 51.5041 60.3276 51.5455 59.6285C51.6284 58.9293 51.7526 58.3946 51.9183 57.9834C52.0839 57.6132 52.2496 57.3665 52.498 57.2431C52.7465 57.0786 53.0364 57.0374 53.3677 57.0374C53.7404 57.0374 54.0717 57.1197 54.3202 57.2842C54.6101 57.4076 54.8172 57.7366 55.0242 58.189C55.1899 58.6414 55.3141 59.2583 55.397 60.0397C55.4798 60.8212 55.5212 61.8494 55.5212 63.1243C55.5212 64.2347 55.4798 65.1396 55.397 65.8387C55.3141 66.5379 55.1899 67.0314 55.0656 67.4427C54.9 67.8128 54.6929 68.0596 54.4445 68.183C54.196 68.3064 53.9061 68.3886 53.5748 68.3886C53.2021 68.3886 52.9122 68.3064 52.6223 68.1419C52.3738 67.9773 52.1667 67.6895 51.9597 67.2371C51.794 66.7847 51.6698 66.1677 51.5869 65.3863C51.5041 64.6049 51.4627 63.6178 51.4627 62.384ZM68.9804 70.9385V58.0245C69.3532 57.9834 69.6431 57.9422 69.9329 57.9422C70.3057 57.9422 70.5956 58.0245 70.844 58.1068C71.1339 58.189 71.341 58.3124 71.4652 58.5592C71.6309 58.7648 71.7551 59.0527 71.7965 59.4228C71.8794 59.793 71.9208 60.2865 71.9208 60.9034V70.9385H77.5115V60.0809C77.5115 58.9293 77.3873 58.0245 77.1802 57.2842C76.9318 56.5439 76.559 55.927 76.0207 55.3923C75.1924 54.5698 74.1985 54.1585 72.9975 54.1585C72.542 54.1585 72.0864 54.1996 71.6309 54.323C71.2168 54.4464 70.6784 54.652 70.0158 54.9811C69.8087 55.1045 69.6016 55.1867 69.436 55.2278C69.2703 55.3101 69.1047 55.3923 68.9804 55.4746V53.9529L63.3897 54.652V70.9385H68.9804ZM89.1486 69.9515V70.9385H94.7394V46.9612L89.1486 47.866V54.323C88.9001 54.2408 88.6517 54.1996 88.4032 54.1996C88.1547 54.1585 87.9062 54.1585 87.6163 54.1585C86.4153 54.1585 85.2972 54.4053 84.3033 54.8577C83.3094 55.3101 82.4811 55.9681 81.7357 56.7907C81.0316 57.6132 80.4933 58.6003 80.0791 59.7519C79.7064 60.9034 79.4994 62.1372 79.4994 63.4945C79.4994 64.5638 79.665 65.592 79.9135 66.5379C80.2034 67.4838 80.6175 68.3064 81.1145 69.0055C81.6528 69.7047 82.274 70.2394 82.9781 70.6095C83.7235 71.0208 84.5103 71.2264 85.38 71.2264C85.8356 71.2264 86.2911 71.1442 86.7467 71.0208C87.2022 70.8974 87.5749 70.7329 87.9476 70.5684C88.3203 70.445 88.6102 70.2805 88.8173 70.1571C89.0658 70.0337 89.1486 69.9515 89.1486 69.9515ZM88.9415 57.0374C89.0244 57.0374 89.1072 57.0786 89.1486 57.0786V67.5249C89.0658 67.5661 88.983 67.5661 88.9001 67.5661C88.8173 67.5661 88.7345 67.5661 88.5688 67.5661C87.5749 67.5661 86.8295 67.1548 86.2497 66.3322C85.7113 65.5097 85.4214 64.2347 85.4214 62.4251C85.4214 60.5744 85.7527 59.2172 86.3739 58.3535C86.9951 57.4898 87.8234 57.0786 88.9415 57.0374ZM112.009 70.9385V61.9316H116.233V70.9385H121.989V50.5393H116.233V58.6414H112.009V50.5393H106.252V70.9385H112.009ZM139.714 62.3018C139.714 61.0268 139.507 59.8752 139.176 58.8882C138.803 57.86 138.306 56.9552 137.643 56.256C136.981 55.5157 136.194 54.9811 135.241 54.5698C134.289 54.1996 133.212 54.0351 131.97 54.0351C130.769 54.0351 129.692 54.2408 128.74 54.652C127.746 55.1045 126.959 55.6802 126.255 56.4617C125.592 57.2431 125.054 58.189 124.681 59.2995C124.308 60.4099 124.101 61.6026 124.101 62.9598C124.101 64.1936 124.308 65.3452 124.64 66.3734C125.012 67.4016 125.509 68.2652 126.172 68.9644C126.876 69.6636 127.663 70.2394 128.615 70.6095C129.568 71.0208 130.603 71.2264 131.804 71.2264C133.005 71.2264 134.123 70.9797 135.076 70.5684C136.028 70.116 136.856 69.4991 137.561 68.7588C138.223 67.9773 138.761 67.0314 139.134 65.921C139.507 64.8517 139.714 63.6178 139.714 62.3018ZM129.858 62.384C129.858 61.2736 129.899 60.3276 129.982 59.6285C130.065 58.9293 130.148 58.3946 130.313 57.9834C130.479 57.6132 130.686 57.3665 130.934 57.2431C131.183 57.0786 131.473 57.0374 131.804 57.0374C132.177 57.0374 132.508 57.1197 132.757 57.2842C133.046 57.4076 133.254 57.7366 133.419 58.189C133.626 58.6414 133.751 59.2583 133.833 60.0397C133.916 60.8212 133.958 61.8494 133.958 63.1243C133.958 64.2347 133.916 65.1396 133.833 65.8387C133.751 66.5379 133.626 67.0314 133.461 67.4427C133.336 67.8128 133.129 68.0596 132.881 68.183C132.632 68.3064 132.342 68.3886 131.97 68.3886C131.638 68.3886 131.349 68.3064 131.059 68.1419C130.81 67.9773 130.562 67.6895 130.396 67.2371C130.23 66.7847 130.106 66.1677 130.023 65.3863C129.94 64.6049 129.858 63.6178 129.858 62.384ZM150.274 54.7754V67.2371C150.109 67.2371 149.984 67.2782 149.902 67.2782C149.777 67.2782 149.653 67.2782 149.487 67.2782C148.991 67.2371 148.618 67.1959 148.286 67.1548C147.997 67.0725 147.79 66.9903 147.624 66.8258C147.5 66.6201 147.417 66.3734 147.375 66.0032C147.334 65.6331 147.293 65.1396 147.293 64.4404V53.9118L141.702 54.8166V65.2218C141.702 66.4145 141.826 67.3604 142.033 68.0596C142.24 68.7588 142.613 69.3757 143.151 69.9103C143.98 70.6918 144.973 71.0619 146.05 71.0619C146.299 71.0619 146.589 71.0619 146.837 71.0208C147.086 70.9797 147.375 70.8974 147.707 70.8151C147.997 70.7329 148.369 70.6095 148.783 70.445C149.198 70.2805 149.695 70.0748 150.274 69.8281V70.9385H155.824V53.9118L150.274 54.7754ZM157.894 70.1571L158.267 70.2394C159.385 70.5272 160.462 70.774 161.497 70.9385C162.491 71.1442 163.319 71.2264 163.982 71.2264C164.852 71.2264 165.639 71.103 166.384 70.8151C167.129 70.5684 167.751 70.1982 168.289 69.7458C168.786 69.2523 169.2 68.6765 169.49 67.9773C169.821 67.3193 169.946 66.579 169.946 65.7976C169.946 65.2629 169.904 64.8105 169.78 64.3581C169.656 63.9469 169.49 63.5356 169.2 63.1654C168.952 62.7542 168.62 62.384 168.206 62.0139C167.792 61.6848 167.254 61.2736 166.632 60.9034L164.727 59.6696V59.6285C164.313 59.3817 164.023 59.1761 163.816 59.0527C163.609 58.8882 163.485 58.7648 163.402 58.6414C163.278 58.5592 163.237 58.4358 163.195 58.3124C163.195 58.189 163.195 58.0245 163.195 57.86C163.154 57.4898 163.319 57.1608 163.651 56.9552C163.982 56.7495 164.355 56.6262 164.81 56.6262C165.142 56.6262 165.597 56.6673 166.053 56.7907C166.508 56.8729 166.964 56.9963 167.378 57.1197C167.792 57.2431 168.123 57.3253 168.413 57.4487C168.703 57.531 168.869 57.6132 168.869 57.6132L169.49 57.86L169.449 54.9811L168.413 54.7754C167.792 54.6109 167.254 54.5287 166.798 54.4464C166.343 54.3642 165.928 54.323 165.556 54.2408C165.183 54.1996 164.852 54.1996 164.562 54.1585C164.272 54.1585 163.982 54.1585 163.692 54.1585C162.864 54.1585 162.118 54.2819 161.414 54.4875C160.752 54.7343 160.131 55.0633 159.634 55.4746C159.178 55.927 158.764 56.4617 158.516 57.0786C158.226 57.6955 158.101 58.3535 158.101 59.0938C158.101 59.5873 158.143 60.0397 158.226 60.451C158.35 60.8623 158.516 61.2736 158.764 61.6437C159.012 61.9727 159.302 62.3429 159.717 62.713C160.089 63.0421 160.545 63.4122 161.125 63.7823L162.988 65.0162C163.444 65.3452 163.816 65.6331 164.106 65.8387C164.355 66.0032 164.562 66.2089 164.727 66.3322C164.852 66.4968 164.935 66.6613 164.935 66.7847C164.976 66.908 165.017 67.0314 165.017 67.2371C165.017 67.4427 164.976 67.6072 164.852 67.7717C164.727 67.9362 164.562 68.0596 164.396 68.183C164.189 68.3064 163.941 68.4297 163.692 68.4709C163.444 68.5531 163.154 68.5943 162.905 68.5943C162.491 68.5943 162.036 68.512 161.539 68.3886C161.083 68.2652 160.586 68.1419 160.172 67.9773C159.758 67.8128 159.385 67.6895 159.095 67.5249C158.764 67.4016 158.64 67.3193 158.64 67.3193L157.977 66.9492L157.894 70.1571ZM181.376 67.5661C180.009 67.5249 178.932 67.1548 178.145 66.4556C177.358 65.7565 176.862 64.646 176.654 63.1654L185.103 62.2606V61.2736C185.103 60.4921 185.061 59.8341 185.02 59.3406C184.937 58.8059 184.854 58.3535 184.689 57.9422C184.564 57.5721 184.399 57.202 184.15 56.9141C183.943 56.585 183.653 56.2971 183.363 55.9681C182.784 55.3512 182.121 54.8988 181.334 54.6109C180.547 54.323 179.678 54.1585 178.767 54.1585C177.566 54.1585 176.489 54.3642 175.536 54.8166C174.625 55.269 173.797 55.8859 173.093 56.6673C172.43 57.4898 171.892 58.4358 171.519 59.5873C171.188 60.6978 170.981 61.9316 170.981 63.2477C170.981 64.4404 171.147 65.5097 171.478 66.4968C171.851 67.4838 172.306 68.3064 172.927 69.0055C173.548 69.7047 174.294 70.2805 175.164 70.6506C176.033 71.0208 176.986 71.2264 178.062 71.2264C178.684 71.2264 179.263 71.1853 179.885 71.103C180.464 71.0208 181.251 70.8563 182.162 70.6506L183.902 70.1982L184.896 69.9926L184.482 67.1959L184.026 67.2782C183.363 67.4016 182.866 67.4838 182.494 67.5249C182.121 67.5661 181.748 67.5661 181.376 67.5661ZM179.678 60.2043L176.572 60.6155V60.5333C176.572 59.0938 176.737 58.1068 177.027 57.5721C177.358 57.0374 177.773 56.7907 178.311 56.8318C178.559 56.8318 178.725 56.8729 178.932 56.9552C179.098 56.9963 179.222 57.1608 179.346 57.3665C179.471 57.6132 179.553 57.9011 179.595 58.2713C179.678 58.6825 179.678 59.1761 179.678 59.7519V60.2043Z" fill="#2B2A29"/>
<path fill-rule="evenodd" clip-rule="evenodd" d="M78.5055 20.9275C78.5055 20.9686 78.4641 20.9686 78.4641 20.9686C77.9671 21.0509 76.9318 20.8453 75.9793 20.3929C72.0451 18.4599 72.1279 12.5786 74.2814 9.12393C75.7722 6.73854 76.7247 6.61516 77.4288 5.91599L72.9976 0.52829C72.7077 0.651672 72.3764 0.980692 72.1279 1.18633C67.6139 5.42246 65.2119 10.2344 65.5846 16.6091C65.9988 23.3952 70.1815 28.0837 76.9732 28.7417L75.3581 36.885L83.765 36.8027L85.5871 27.8781L91.9647 26.7676L89.9769 36.7616L98.3838 36.6793L100.537 26.0685C108.033 26.9733 106.915 37.0495 102.774 40.7921L107.163 46.262C113.541 40.751 115.612 28.824 109.731 22.1613C108.116 20.3106 105.672 18.83 102.07 18.501L103.685 10.1932L95.2778 10.2344L93.4556 19.1179L87.1194 20.2695L89.0658 10.3166L80.659 10.3989L78.5055 20.9275Z" fill="#2B2A29"/>
</svg>
