<svg width="90" height="90" viewBox="0 0 90 90" fill="none" xmlns="http://www.w3.org/2000/svg">
<path d="M18.75 30H26.25V60H18.75V30ZM45 30H33.75C31.6875 30 30 31.6875 30 33.75V56.25C30 58.3125 31.6875 60 33.75 60H45C47.0625 60 48.75 58.3125 48.75 56.25V33.75C48.75 31.6875 47.0625 30 45 30ZM41.25 52.5H37.5V37.5H41.25V52.5ZM67.5 30H56.25C54.1875 30 52.5 31.6875 52.5 33.75V56.25C52.5 58.3125 54.1875 60 56.25 60H67.5C69.5625 60 71.25 58.3125 71.25 56.25V33.75C71.25 31.6875 69.5625 30 67.5 30ZM63.75 52.5H60V37.5H63.75V52.5Z" fill="#3E89C7"/>
<path d="M7.5 15V75H82.5V15H7.5ZM15 67.5V22.5H75V67.5H15Z" fill="#3E89C7"/>
</svg>
