<svg width="25" height="25" viewBox="0 0 25 25" fill="none" xmlns="http://www.w3.org/2000/svg">
<g clip-path="url(#clip0)">
<path d="M19.7579 15.4864C19.246 14.9534 18.6287 14.6685 17.9744 14.6685C17.3254 14.6685 16.7028 14.9482 16.1699 15.4811L14.5025 17.1432C14.3654 17.0693 14.2282 17.0007 14.0963 16.9321C13.9063 16.8371 13.7269 16.7474 13.5739 16.6524C12.0121 15.6605 10.5927 14.3678 9.23139 12.6951C8.57184 11.8615 8.12862 11.1597 7.80676 10.4474C8.23943 10.0516 8.64044 9.64008 9.03089 9.24435C9.17863 9.09661 9.32637 8.9436 9.47411 8.79586C10.5822 7.68781 10.5822 6.25262 9.47411 5.14457L8.03365 3.70411C7.87008 3.54054 7.70123 3.37169 7.54294 3.20285C7.22635 2.87571 6.89394 2.53802 6.55097 2.22143C6.03916 1.7149 5.4271 1.4458 4.78337 1.4458C4.13965 1.4458 3.51703 1.7149 2.98939 2.22143C2.98411 2.22671 2.98411 2.22671 2.97884 2.23199L1.18485 4.0418C0.509471 4.71718 0.124292 5.5403 0.0398697 6.49534C-0.0867645 8.03605 0.367008 9.47124 0.715251 10.4104C1.57003 12.7162 2.84693 14.8532 4.75171 17.1432C7.06279 19.9027 9.84346 22.0819 13.0199 23.6173C14.2334 24.1925 15.8533 24.8731 17.6631 24.9892C17.7739 24.9945 17.89 24.9997 17.9955 24.9997C19.2144 24.9997 20.238 24.5618 21.04 23.6912C21.0453 23.6806 21.0559 23.6754 21.0611 23.6648C21.3355 23.3324 21.6521 23.0316 21.9845 22.7098C22.2114 22.4934 22.4436 22.2666 22.6704 22.0291C23.1928 21.4856 23.4672 20.8525 23.4672 20.2035C23.4672 19.5492 23.1875 18.9213 22.6546 18.3937L19.7579 15.4864ZM21.6468 21.0424C21.6415 21.0424 21.6415 21.0477 21.6468 21.0424C21.441 21.264 21.23 21.4645 21.0031 21.6862C20.6601 22.0133 20.3119 22.3563 19.9847 22.7414C19.4518 23.3113 18.8239 23.5804 18.0008 23.5804C17.9217 23.5804 17.8372 23.5804 17.7581 23.5751C16.191 23.4749 14.7347 22.8628 13.6425 22.3404C10.656 20.8947 8.03365 18.8422 5.85449 16.2409C4.05523 14.0723 2.8522 12.0672 2.05546 9.91446C1.56476 8.60063 1.38536 7.577 1.4645 6.61142C1.51727 5.99408 1.75471 5.48226 2.19265 5.04432L3.99191 3.24506C4.25045 3.00235 4.52483 2.87043 4.79392 2.87043C5.12634 2.87043 5.39544 3.07094 5.56428 3.23978C5.56956 3.24506 5.57483 3.25034 5.58011 3.25561C5.90197 3.55637 6.20801 3.86768 6.52987 4.20009C6.69344 4.36894 6.86228 4.53778 7.03113 4.71191L8.47159 6.15237C9.03089 6.71167 9.03089 7.22876 8.47159 7.78806C8.31857 7.94108 8.17083 8.09409 8.01782 8.24183C7.5746 8.6956 7.15249 9.11772 6.69344 9.52928C6.68288 9.53983 6.67233 9.54511 6.66705 9.55566C6.21328 10.0094 6.2977 10.4527 6.39268 10.7534C6.39796 10.7692 6.40323 10.7851 6.40851 10.8009C6.78314 11.7084 7.31078 12.5632 8.11279 13.5816L8.11807 13.5868C9.57436 15.3808 11.1098 16.7791 12.8035 17.8502C13.0199 17.9874 13.2415 18.0982 13.4525 18.2037C13.6425 18.2987 13.8219 18.3884 13.9749 18.4834C13.996 18.4939 14.0171 18.5097 14.0382 18.5203C14.2176 18.61 14.3865 18.6522 14.5606 18.6522C14.9985 18.6522 15.2729 18.3778 15.3626 18.2881L17.1671 16.4836C17.3465 16.3042 17.6315 16.0879 17.9639 16.0879C18.291 16.0879 18.5601 16.2937 18.7237 16.473C18.729 16.4783 18.729 16.4783 18.7342 16.4836L21.6415 19.3909C22.185 19.9291 22.185 20.4831 21.6468 21.0424Z" fill="#5D8C71"/>
<path d="M13.5106 5.94676C14.893 6.17892 16.1488 6.83319 17.1513 7.83572C18.1538 8.83824 18.8028 10.094 19.0403 11.4764C19.0983 11.8247 19.3991 12.0674 19.742 12.0674C19.7843 12.0674 19.8212 12.0621 19.8634 12.0569C20.2539 11.9935 20.5124 11.6242 20.4491 11.2337C20.1642 9.56111 19.3727 8.03622 18.1644 6.82792C16.9561 5.61962 15.4312 4.82815 13.7586 4.54323C13.3681 4.47991 13.004 4.73846 12.9355 5.12363C12.8669 5.50881 13.1201 5.88344 13.5106 5.94676Z" fill="#5D8C71"/>
<path d="M24.971 11.028C24.5014 8.27373 23.2034 5.76743 21.2089 3.77295C19.2144 1.77846 16.7081 0.480461 13.9538 0.0108597C13.5686 -0.0577338 13.2046 0.206087 13.136 0.591266C13.0726 0.981721 13.3312 1.34579 13.7216 1.41439C16.1805 1.83122 18.4229 2.99731 20.2064 4.77547C21.9898 6.5589 23.1506 8.80138 23.5675 11.2602C23.6255 11.6084 23.9262 11.8511 24.2692 11.8511C24.3114 11.8511 24.3484 11.8459 24.3906 11.8406C24.7758 11.7826 25.0396 11.4132 24.971 11.028Z" fill="#5D8C71"/>
</g>
<defs>
<clipPath id="clip0">
<rect width="25" height="25" fill="white"/>
</clipPath>
</defs>
</svg>
