<svg width="40" height="40" viewBox="0 0 40 40" fill="none" xmlns="http://www.w3.org/2000/svg">
<g clip-path="url(#clip0)">
<path d="M31.6126 24.7789C30.7937 23.9262 29.8059 23.4703 28.7591 23.4703C27.7207 23.4703 26.7245 23.9177 25.8718 24.7704L23.2041 27.4297C22.9846 27.3115 22.7651 27.2018 22.554 27.092C22.2501 26.9401 21.963 26.7966 21.7182 26.6446C19.2193 25.0574 16.9483 22.9891 14.7702 20.3129C13.7149 18.979 13.0058 17.8562 12.4908 16.7165C13.1831 16.0833 13.8247 15.4248 14.4494 14.7916C14.6858 14.5553 14.9222 14.3104 15.1586 14.0741C16.9315 12.3012 16.9315 10.0049 15.1586 8.232L12.8538 5.92726C12.5921 5.66555 12.322 5.3954 12.0687 5.12524C11.5622 4.60182 11.0303 4.06152 10.4816 3.55498C9.66266 2.74452 8.68335 2.31396 7.65339 2.31396C6.62344 2.31396 5.62725 2.74452 4.78302 3.55498C4.77458 3.56342 4.77458 3.56342 4.76614 3.57186L1.89576 6.46756C0.815154 7.54817 0.198868 8.86517 0.0637914 10.3932C-0.138823 12.8584 0.587212 15.1547 1.1444 16.6574C2.51205 20.3467 4.55508 23.7658 7.60274 27.4297C11.3005 31.845 15.7495 35.3317 20.8318 37.7884C22.7735 38.7086 25.3653 39.7977 28.261 39.9834C28.4383 39.9918 28.624 40.0003 28.7928 40.0003C30.743 40.0003 32.3808 39.2996 33.664 37.9066C33.6725 37.8897 33.6894 37.8813 33.6978 37.8644C34.1368 37.3325 34.6433 36.8513 35.1752 36.3363C35.5382 35.9902 35.9097 35.6272 36.2727 35.2473C37.1085 34.3777 37.5475 33.3646 37.5475 32.3262C37.5475 31.2794 37.1 30.2748 36.2474 29.4305L31.6126 24.7789ZM34.6349 33.6686C34.6265 33.6686 34.6265 33.677 34.6349 33.6686C34.3057 34.0231 33.968 34.344 33.6049 34.6985C33.0562 35.2219 32.499 35.7707 31.9756 36.387C31.1229 37.2987 30.1183 37.7293 28.8013 37.7293C28.6747 37.7293 28.5396 37.7293 28.4129 37.7209C25.9056 37.5605 23.5755 36.5812 21.828 35.7454C17.0496 33.4322 12.8538 30.1481 9.36718 25.9861C6.48836 22.5163 4.56352 19.3083 3.28874 15.8638C2.50361 13.7617 2.21657 12.1239 2.34321 10.579C2.42763 9.5912 2.80753 8.7723 3.50824 8.0716L6.38705 5.19278C6.80073 4.80444 7.23972 4.59338 7.67028 4.59338C8.20214 4.59338 8.6327 4.91419 8.90285 5.18434C8.91129 5.19278 8.91974 5.20122 8.92818 5.20966C9.44316 5.69087 9.93281 6.18897 10.4478 6.72083C10.7095 6.99098 10.9797 7.26114 11.2498 7.53973L13.5545 9.84447C14.4494 10.7394 14.4494 11.5667 13.5545 12.4616C13.3097 12.7064 13.0733 12.9512 12.8285 13.1876C12.1194 13.9136 11.444 14.589 10.7095 15.2475C10.6926 15.2644 10.6757 15.2729 10.6673 15.2897C9.94125 16.0158 10.0763 16.7249 10.2283 17.2061C10.2367 17.2315 10.2452 17.2568 10.2536 17.2821C10.853 18.7342 11.6972 20.1018 12.9805 21.7312L12.9889 21.7396C15.319 24.61 17.7757 26.8472 20.4857 28.561C20.8318 28.7805 21.1864 28.9578 21.524 29.1266C21.828 29.2786 22.115 29.4221 22.3598 29.5741C22.3936 29.591 22.4274 29.6163 22.4611 29.6332C22.7482 29.7767 23.0183 29.8442 23.2969 29.8442C23.9976 29.8442 24.4366 29.4052 24.5802 29.2617L27.4674 26.3744C27.7544 26.0874 28.2103 25.7413 28.7422 25.7413C29.2656 25.7413 29.6962 26.0705 29.9579 26.3576C29.9663 26.366 29.9663 26.366 29.9748 26.3744L34.6265 31.0261C35.496 31.8873 35.496 32.7737 34.6349 33.6686Z" fill="#93F600"/>
<path d="M21.617 9.51481C23.8288 9.88627 25.8381 10.9331 27.4421 12.5371C29.0462 14.1412 30.0846 16.1504 30.4645 18.3623C30.5573 18.9195 31.0385 19.3078 31.5873 19.3078C31.6548 19.3078 31.7139 19.2994 31.7815 19.291C32.4062 19.1897 32.8199 18.5987 32.7186 17.974C32.2627 15.2978 30.9963 12.858 29.0631 10.9247C27.1298 8.99139 24.6899 7.72505 22.0137 7.26916C21.389 7.16786 20.8065 7.58153 20.6967 8.19781C20.587 8.8141 20.9922 9.4135 21.617 9.51481Z" fill="#93F600"/>
<path d="M39.9535 17.6448C39.2022 13.238 37.1254 9.2279 33.9342 6.03672C30.743 2.84554 26.7329 0.768738 22.3261 0.0173754C21.7098 -0.0923741 21.1273 0.32974 21.0175 0.946026C20.9162 1.57075 21.3299 2.15327 21.9546 2.26302C25.8887 2.92996 29.4767 4.7957 32.3302 7.64075C35.1836 10.4942 37.0409 14.0822 37.7079 18.0163C37.8007 18.5735 38.282 18.9618 38.8307 18.9618C38.8982 18.9618 38.9573 18.9534 39.0249 18.945C39.6412 18.8521 40.0633 18.2611 39.9535 17.6448Z" fill="#93F600"/>
</g>
<defs>
<clipPath id="clip0">
<rect width="40" height="40" fill="white"/>
</clipPath>
</defs>
</svg>
