<?xml version="1.0" encoding="UTF-8"?>
<!DOCTYPE svg PUBLIC "-//W3C//DTD SVG 1.1//EN" "http://www.w3.org/Graphics/SVG/1.1/DTD/svg11.dtd">
<!-- Creator: CorelDRAW X8 -->
<svg xmlns="http://www.w3.org/2000/svg" xml:space="preserve" width="90mm" height="50mm" version="1.1" style="shape-rendering:geometricPrecision; text-rendering:geometricPrecision; image-rendering:optimizeQuality; fill-rule:evenodd; clip-rule:evenodd"
viewBox="0 0 9000 5000"
 xmlns:xlink="http://www.w3.org/1999/xlink">
 <defs>
  <style type="text/css">
   <![CDATA[
    .fil2 {fill:#2B2A29}
    .fil1 {fill:#2B2A29;fill-rule:nonzero}
    .fil0 {fill:#E30000;fill-rule:nonzero}
   ]]>
  </style>
 </defs>
 <g id="Warstwa_x0020_1">
  <metadata id="CorelCorpID_0Corel-Layer"/>
  <g id="_1575402388224">
   <path class="fil0" d="M3443 3555l47 0 0 -169 -47 0 0 169zm377 0l0 -110 46 109 50 0 0 -168 -28 0 0 103 -45 -103 -52 0 0 169 29 0zm506 -169l-33 124c0,0 0,-3 -1,-7 -1,-5 -3,-11 -5,-18 -1,-7 -3,-15 -5,-24 -3,-9 -5,-18 -7,-26 -2,-9 -4,-17 -6,-24 -1,-8 -3,-14 -4,-18 -1,-4 -2,-7 -2,-7l-50 0 47 168 50 0 51 -168 -35 0zm328 169l113 -1 0 -23 -66 0 0 -51 51 0 0 -23 -51 0 0 -48 64 0 0 -23 -111 0 0 169zm406 -9l8 3c10,3 20,5 28,6 8,2 15,2 21,2 8,0 15,-1 22,-4 7,-2 13,-6 18,-11 5,-5 9,-10 12,-17 3,-7 4,-14 4,-21 0,-5 -1,-10 -2,-14 -1,-4 -2,-8 -5,-11 -2,-4 -5,-7 -8,-10 -4,-4 -8,-7 -13,-10l-23 -16c-3,-2 -6,-4 -8,-6 -2,-1 -3,-3 -4,-4 -1,-1 -2,-3 -2,-4 -1,-1 -1,-3 -1,-5 0,-5 2,-9 5,-12 4,-2 9,-4 14,-4 3,0 7,1 11,2 4,1 8,2 12,3 4,1 7,2 10,4 2,1 4,1 4,1l5 2 0 -27 -3 -1c-10,-2 -20,-5 -29,-6 -9,-2 -17,-3 -23,-3 -7,0 -14,1 -20,4 -7,2 -12,6 -17,10 -5,5 -8,10 -11,17 -3,6 -4,13 -4,20 0,5 1,10 2,14 1,4 3,8 5,12 2,3 5,7 9,10 4,4 8,7 14,11l20 14c4,3 7,5 9,7 2,1 4,3 5,4 1,2 2,3 2,4 0,1 0,3 0,5 0,2 0,4 -1,6 -2,2 -3,4 -5,6 -2,1 -4,2 -7,3 -2,1 -4,1 -7,1 -4,0 -8,-1 -13,-2 -5,-1 -9,-2 -14,-4 -4,-1 -7,-3 -10,-4 -3,-1 -4,-2 -4,-2l-6 -3 0 30zm449 9l47 0 0 -146 19 0 9 23 17 0 0 -46 -137 0 0 46 16 0 10 -23 19 0 0 146z"/>
   <path class="fil1" d="M2276 3130l23 7c32,9 60,16 83,20 23,4 44,5 61,5 24,0 45,-4 66,-11 20,-8 37,-19 52,-33 15,-15 27,-31 35,-51 9,-19 13,-40 13,-62 0,-15 -1,-28 -4,-40 -3,-12 -8,-23 -15,-34 -7,-10 -15,-20 -25,-30 -11,-9 -23,-19 -37,-29l-69 -46c-10,-7 -18,-12 -23,-17 -6,-5 -11,-9 -14,-13 -3,-3 -5,-7 -6,-11 -1,-4 -1,-9 -1,-14 0,-15 5,-26 16,-35 11,-8 24,-13 39,-13 10,0 21,2 33,5 13,3 25,6 36,10 11,4 20,7 28,10 8,3 12,5 12,5l15 7 0 -81 -9 -2c-30,-8 -59,-15 -85,-20 -27,-5 -49,-8 -67,-8 -22,0 -42,4 -61,11 -19,8 -35,19 -48,32 -14,14 -25,30 -32,48 -8,19 -12,39 -12,61 0,14 2,27 5,39 3,12 8,24 15,35 7,11 16,21 27,31 11,11 24,21 40,32l59 41c12,8 21,15 27,20 7,5 12,10 15,13 3,4 4,8 5,12 1,4 1,8 1,14 1,7 -1,13 -4,19 -4,6 -8,11 -14,15 -5,4 -12,7 -19,10 -7,2 -15,3 -22,3 -12,0 -25,-2 -39,-5 -14,-4 -27,-7 -39,-12 -13,-4 -23,-8 -31,-12 -9,-4 -13,-6 -13,-6l-17 -9 0 89zm615 -57c-34,-1 -60,-10 -79,-27 -19,-17 -31,-44 -36,-80l205 -22 0 -24c0,-19 -1,-35 -3,-47 -1,-13 -4,-24 -7,-34 -3,-9 -8,-18 -13,-25 -6,-8 -12,-15 -20,-23 -13,-15 -29,-26 -49,-33 -19,-7 -39,-11 -61,-11 -29,0 -55,5 -78,16 -23,11 -43,26 -59,45 -17,20 -29,43 -38,71 -9,27 -13,57 -13,89 0,29 4,55 12,79 8,24 20,44 35,61 15,17 33,31 54,40 20,9 44,14 70,14 14,0 29,-1 43,-3 15,-2 33,-6 56,-11l41 -11 25 -5 -11 -68 -11 2c-15,3 -27,5 -36,6 -9,1 -18,1 -27,1zm-41 -179l-75 10 0 -2c0,-35 3,-59 11,-72 7,-13 17,-19 30,-18 6,0 11,1 15,3 4,1 8,5 10,10 3,6 5,13 7,22 1,10 2,22 2,36l0 11zm483 -130l-9 -2c-24,-5 -45,-9 -64,-11 -19,-3 -35,-4 -50,-4 -29,0 -55,6 -79,17 -24,11 -44,26 -61,46 -18,20 -31,43 -40,71 -10,27 -15,57 -15,89 0,28 4,54 12,77 8,24 19,44 34,61 15,17 32,31 53,40 20,9 43,14 68,14 18,0 38,-2 61,-7 22,-4 51,-12 85,-22l10 -3 -11 -66c0,0 -3,1 -8,2 -6,1 -12,2 -20,3 -7,1 -15,2 -22,3 -7,1 -13,1 -17,1 -32,0 -57,-11 -75,-33 -17,-22 -27,-55 -27,-98 0,-21 1,-40 2,-56 1,-16 3,-30 7,-40 4,-11 10,-20 17,-25 8,-5 18,-8 30,-8 9,0 21,1 34,4 14,3 28,5 40,8 13,3 24,6 34,8 9,3 13,4 13,4l-2 -73zm401 181c0,-31 -4,-59 -13,-83 -8,-25 -21,-47 -37,-64 -16,-18 -35,-31 -58,-41 -23,-9 -49,-13 -78,-13 -30,0 -56,5 -79,15 -23,11 -43,25 -60,44 -16,19 -29,42 -38,69 -9,27 -13,56 -13,89 0,30 4,58 13,83 8,25 21,46 37,63 16,17 35,31 58,40 23,10 49,15 77,15 30,0 56,-6 79,-16 24,-11 44,-26 60,-44 17,-19 29,-42 38,-69 10,-26 14,-56 14,-88zm-237 2c0,-27 1,-50 2,-67 2,-17 5,-30 9,-40 4,-9 8,-15 14,-18 6,-4 13,-5 21,-5 9,0 17,2 23,6 7,3 12,11 17,22 4,11 7,26 9,45 2,19 3,44 3,75 0,27 -1,49 -3,66 -2,17 -5,29 -8,39 -4,9 -9,15 -15,18 -6,3 -13,5 -21,5 -9,0 -16,-2 -23,-6 -6,-4 -11,-11 -16,-22 -4,-11 -7,-26 -9,-45 -2,-19 -3,-43 -3,-73zm423 208l0 -314c9,-1 16,-2 23,-2 9,0 16,2 22,4 7,2 12,5 15,11 4,5 7,12 8,21 2,9 3,21 3,36l0 244 135 0 0 -264c0,-28 -3,-50 -8,-68 -6,-18 -15,-33 -28,-46 -20,-20 -44,-30 -73,-30 -11,0 -22,1 -33,4 -10,3 -23,8 -39,16 -5,3 -10,5 -14,6 -4,2 -8,4 -11,6l0 -37 -135 17 0 396 135 0zm487 -24l0 24 135 0 0 -583 -135 22 0 157c-6,-2 -12,-3 -18,-3 -6,-1 -12,-1 -19,-1 -29,0 -56,6 -80,17 -24,11 -44,27 -62,47 -17,20 -30,44 -40,72 -9,28 -14,58 -14,91 0,26 4,51 10,74 7,23 17,43 29,60 13,17 28,30 45,39 18,10 37,15 58,15 11,0 22,-2 33,-5 11,-3 20,-7 29,-11 9,-3 16,-7 21,-10 6,-3 8,-5 8,-5zm-5 -314c2,0 4,1 5,1l0 254c-2,1 -4,1 -6,1 -2,0 -4,0 -8,0 -24,0 -42,-10 -56,-30 -13,-20 -20,-51 -20,-95 0,-45 8,-78 23,-99 15,-21 35,-31 62,-32zm557 338l0 -219 102 0 0 219 139 0 0 -496 -139 0 0 197 -102 0 0 -197 -139 0 0 496 139 0zm669 -210c0,-31 -5,-59 -13,-83 -9,-25 -21,-47 -37,-64 -16,-18 -35,-31 -58,-41 -23,-9 -49,-13 -79,-13 -29,0 -55,5 -78,15 -24,11 -43,25 -60,44 -16,19 -29,42 -38,69 -9,27 -14,56 -14,89 0,30 5,58 13,83 9,25 21,46 37,63 17,17 36,31 59,40 23,10 48,15 77,15 29,0 56,-6 79,-16 23,-11 43,-26 60,-44 16,-19 29,-42 38,-69 9,-26 14,-56 14,-88zm-238 2c0,-27 1,-50 3,-67 2,-17 4,-30 8,-40 4,-9 9,-15 15,-18 6,-4 13,-5 21,-5 9,0 17,2 23,6 7,3 12,11 16,22 5,11 8,26 10,45 2,19 3,44 3,75 0,27 -1,49 -3,66 -2,17 -5,29 -9,39 -3,9 -8,15 -14,18 -6,3 -13,5 -22,5 -8,0 -15,-2 -22,-6 -6,-4 -12,-11 -16,-22 -4,-11 -7,-26 -9,-45 -2,-19 -4,-43 -4,-73zm493 -185l0 303c-4,0 -7,1 -9,1 -3,0 -6,0 -10,0 -12,-1 -21,-2 -29,-3 -7,-2 -12,-4 -16,-8 -3,-5 -5,-11 -6,-20 -1,-9 -2,-21 -2,-38l0 -256 -135 22 0 253c0,29 3,52 8,69 5,17 14,32 27,45l0 0c20,19 44,28 70,28 6,0 13,0 19,-1 6,-1 13,-3 21,-5 7,-2 16,-5 26,-9 10,-4 22,-9 36,-15l0 27 134 0 0 -414 -134 21zm184 374l9 2c27,7 53,13 78,17 24,5 44,7 60,7 21,0 40,-3 58,-10 18,-6 33,-15 46,-26 12,-12 22,-26 29,-43 8,-16 11,-34 11,-53 0,-13 -1,-24 -4,-35 -3,-10 -7,-20 -14,-29 -6,-10 -14,-19 -24,-28 -10,-8 -23,-18 -38,-27l-46 -30 0 -1c-10,-6 -17,-11 -22,-14 -5,-4 -8,-7 -10,-10 -3,-2 -4,-5 -5,-8 0,-3 0,-7 0,-11 -1,-9 3,-17 11,-22 8,-5 17,-8 28,-8 8,0 19,1 30,4 11,2 22,5 32,8 10,3 18,5 25,8 7,2 11,4 11,4l15 6 -1 -70 -25 -5c-15,-4 -28,-6 -39,-8 -11,-2 -21,-3 -30,-5 -9,-1 -17,-1 -24,-2 -7,0 -14,0 -21,0 -20,0 -38,3 -55,8 -16,6 -31,14 -43,24 -11,11 -21,24 -27,39 -7,15 -10,31 -10,49 0,12 1,23 3,33 3,10 7,20 13,29 6,8 13,17 23,26 9,8 20,17 34,26l45 30c11,8 20,15 27,20 6,4 11,9 15,12 3,4 5,8 5,11 1,3 2,6 2,11 0,5 -1,9 -4,13 -3,4 -7,7 -11,10 -5,3 -11,6 -17,7 -6,2 -13,3 -19,3 -10,0 -21,-2 -33,-5 -11,-3 -23,-6 -33,-10 -10,-4 -19,-7 -26,-11 -8,-3 -11,-5 -11,-5l-16 -9 -2 78zm567 -63c-33,-1 -59,-10 -78,-27 -19,-17 -31,-44 -36,-80l204 -22 0 -24c0,-19 -1,-35 -2,-47 -2,-13 -4,-24 -8,-34 -3,-9 -7,-18 -13,-25 -5,-8 -12,-15 -19,-23 -14,-15 -30,-26 -49,-33 -19,-7 -40,-11 -62,-11 -29,0 -55,5 -78,16 -22,11 -42,26 -59,45 -16,20 -29,43 -38,71 -8,27 -13,57 -13,89 0,29 4,55 12,79 9,24 20,44 35,61 15,17 33,31 54,40 21,9 44,14 70,14 15,0 29,-1 44,-3 14,-2 33,-6 55,-11l42 -11 24 -5 -10 -68 -11 2c-16,3 -28,5 -37,6 -9,1 -18,1 -27,1zm-41 -179l-75 10 0 -2c0,-35 4,-59 11,-72 8,-13 18,-19 31,-18 6,0 10,1 15,3 4,1 7,5 10,10 3,6 5,13 6,22 2,10 2,22 2,36l0 11z"/>
   <path class="fil2" d="M4150 1939c0,1 -1,1 -1,1 -12,2 -37,-3 -60,-14 -95,-47 -93,-190 -41,-274 36,-58 59,-61 76,-78l-107 -131c-7,3 -15,11 -21,16 -109,103 -167,220 -158,375 10,165 111,279 275,295l-39 198 203 -2 44 -217 154 -27 -48 243 203 -2 52 -258c181,22 154,267 54,358l106 133c154,-134 204,-424 62,-586 -39,-45 -98,-81 -185,-89l39 -202 -203 1 -44 216 -153 28 47 -242 -203 2 -52 256z"/>
  </g>
 </g>
</svg>
