<svg width="90" height="90" viewBox="0 0 90 90" fill="none" xmlns="http://www.w3.org/2000/svg">
<path d="M56.25 41.25V18.75L45 7.5L33.75 18.75V26.25H11.25V78.75H78.75V41.25H56.25ZM26.25 71.25H18.75V63.75H26.25V71.25ZM26.25 56.25H18.75V48.75H26.25V56.25ZM26.25 41.25H18.75V33.75H26.25V41.25ZM48.75 71.25H41.25V63.75H48.75V71.25ZM48.75 56.25H41.25V48.75H48.75V56.25ZM48.75 41.25H41.25V33.75H48.75V41.25ZM48.75 26.25H41.25V18.75H48.75V26.25ZM71.25 71.25H63.75V63.75H71.25V71.25ZM71.25 56.25H63.75V48.75H71.25V56.25Z" fill="#499F6B"/>
</svg>
