<svg width="90" height="90" viewBox="0 0 90 90" fill="none" xmlns="http://www.w3.org/2000/svg">
<path d="M7.5 75H15C17.0625 75 18.75 73.3125 18.75 71.25V37.5C18.75 35.4375 17.0625 33.75 15 33.75H7.5V75ZM81.8625 48.3C82.275 47.3625 82.5 46.35 82.5 45.3V41.25C82.5 37.125 79.125 33.75 75 33.75H54.375L57.825 16.3125C58.0125 15.4875 57.9 14.5875 57.525 13.8375C56.6625 12.15 55.575 10.6125 54.225 9.2625L52.5 7.5L28.4625 31.5375C27.0375 32.9625 26.25 34.875 26.25 36.8625V66.2625C26.25 71.0625 30.1875 75 35.025 75H65.4375C68.0625 75 70.5375 73.6125 71.8875 71.3625L81.8625 48.3Z" fill="#8AE800"/>
</svg>
